#!OML:ASF E:\acrobat2\Project_11_07_03\Capture day 1\Session 1\Acrobat.ASF
:FULLY-SPECIFIED
:DEGREES
220
root 8.44679 17.9625 -27.9088 38.7584 -86.5347 -33.0502
lowerback -7.09206 1.47163 2.23912
upperback -4.61083 1.7052 -0.293593
thorax -0.707741 0.749284 -1.44804
lowerneck -1.75068 3.03086 0.570925
upperneck 3.14207 3.9201 2.88955
head 1.21044 2.00352 0.856512
rclavicle 2.35063e-014 -4.57205e-015
rhumerus -6.36672 -25.9779 -2.68059
rradius 20.8212
rwrist 17.9827
rhand -6.12511 -45.8615
rfingers 7.12502
rthumb 19.7121 -74.8821
lclavicle 2.35063e-014 -4.57205e-015
lhumerus 2.94491 12.7302 -0.579338
lradius 21.0472
lwrist 9.39412
lhand -9.44396 -4.97016
lfingers 7.12502
lthumb 16.519 24.3467
rfemur 7.27385 15.2331 14.3939
rtibia -2.62468
rfoot -25.8429 -28.9229
rtoes 2.65577
lfemur 6.97411 -11.9928 -4.52737
ltibia -3.44837
lfoot -31.1243 5.70462
ltoes 42.6498
221
root 8.45412 17.9606 -27.9135 37.3167 -86.5964 -31.5718
lowerback -7.03343 1.48186 2.09219
upperback -4.64197 1.72825 -0.337813
thorax -0.773979 0.762119 -1.41152
lowerneck -1.69875 3.06736 0.605788
upperneck 3.11191 3.96819 2.91657
head 1.19154 2.0275 0.858175
rclavicle -2.24378e-014 3.97569e-016
rhumerus -6.56776 -25.8537 -2.66453
rradius 21.0559
rwrist 17.8819
rhand -5.95883 -45.8834
rfingers 7.12502
rthumb 19.8719 -74.8875
lclavicle -2.24378e-014 3.97569e-016
lhumerus 3.00625 12.4628 -0.632641
lradius 21.0688
lwrist 9.52288
lhand -9.4096 -4.99363
lfingers 7.12502
lthumb 16.5521 24.3204
rfemur 7.22449 15.359 14.3003
rtibia -2.6019
rfoot -26.1212 -28.9019
rtoes 3.39153
lfemur 6.84248 -11.6364 -4.51112
ltibia -3.34913
lfoot -30.6846 5.53961
ltoes 42.7991
222
root 8.45722 17.957 -27.9153 38.2401 -86.6857 -32.4074
lowerback -7.10344 1.54038 2.08978
upperback -4.66402 1.80318 -0.356804
thorax -0.75463 0.798784 -1.42345
lowerneck -1.70289 3.10595 0.626758
upperneck 3.15557 4.01949 2.87108
head 1.20658 2.05324 0.842133
rclavicle -5.11871e-015 -3.57812e-015
rhumerus -6.69635 -25.6473 -2.63749
rradius 21.1571
rwrist 17.6945
rhand -5.87754 -45.8763
rfingers 7.12502
rthumb 19.9501 -74.8722
lclavicle -5.11871e-015 -3.57812e-015
lhumerus 3.00523 11.812 -0.781742
lradius 21.1388
lwrist 10.1112
lhand -9.34293 -4.922
lfingers 7.12502
lthumb 16.6163 24.3867
rfemur 7.07571 15.4268 14.2935
rtibia -2.53415
rfoot -26.1293 -28.8748
rtoes 3.46042
lfemur 6.67874 -10.7424 -4.30713
ltibia -3.25374
lfoot -29.8959 5.48569
ltoes 42.2904
223
root 8.4573 17.9542 -27.9155 40.7793 -86.7974 -34.8393
lowerback -7.24235 1.61769 2.20023
upperback -4.67631 1.89447 -0.370534
thorax -0.683321 0.841814 -1.49
lowerneck -1.75869 3.15006 0.638526
upperneck 3.26479 4.07702 2.79798
head 1.25152 2.08265 0.82138
rclavicle -6.85807e-015 6.55989e-015
rhumerus -6.69992 -25.5387 -2.66214
rradius 21.1272
rwrist 17.6008
rhand -5.8309 -45.8836
rfingers 7.12502
rthumb 19.9949 -74.8748
lclavicle -6.85807e-015 6.55989e-015
lhumerus 2.89794 10.4876 -1.12952
lradius 21.293
lwrist 11.4781
lhand -9.47244 -4.74294
lfingers 7.12502
lthumb 16.4916 24.5762
rfemur 6.86772 15.4033 14.3111
rtibia -2.45138
rfoot -25.9666 -28.8232
rtoes 2.85847
lfemur 6.33432 -8.43199 -3.71291
ltibia -2.89937
lfoot -27.8 5.31309
ltoes 40.7876
224
root 8.46469 17.9546 -27.9162 39.2459 -86.8211 -33.2713
lowerback -7.20145 1.59701 2.1366
upperback -4.69185 1.87164 -0.398881
thorax -0.723869 0.830702 -1.48636
lowerneck -1.74265 3.18918 0.581355
upperneck 3.25118 4.13022 2.84136
head 1.2419 2.10896 0.844509
rclavicle -1.38652e-014 3.18055e-015
rhumerus -6.64081 -25.7385 -2.73129
rradius 21.0675
rwrist 17.7888
rhand -5.74506 -45.8404
rfingers 7.12502
rthumb 20.0774 -74.823
lclavicle -1.38652e-014 3.18055e-015
lhumerus 2.82989 9.73555 -1.31842
lradius 21.3935
lwrist 12.3343
lhand -9.66977 -4.68924
lfingers 7.12502
lthumb 16.3016 24.6456
rfemur 6.8004 15.3905 14.1916
rtibia -2.41273
rfoot -26.0609 -28.7765
rtoes 3.33286
lfemur 5.9654 -6.4799 -3.3624
ltibia -2.45801
lfoot -25.8471 5.18374
ltoes 39.0344
225
root 8.47682 17.9577 -27.9177 34.2818 -86.7629 -28.3536
lowerback -7.00916 1.49321 1.90303
upperback -4.69681 1.75288 -0.416228
thorax -0.845943 0.775483 -1.38598
lowerneck -1.70153 3.22199 0.516537
upperneck 3.19547 4.17764 2.86175
head 1.21498 2.13143 0.860423
rclavicle -1.9133e-015 4.77083e-015
rhumerus -6.55102 -26.0026 -2.79946
rradius 21.0381
rwrist 18.0119
rhand -5.69023 -45.8188
rfingers 7.12502
rthumb 20.1301 -74.7959
lclavicle -1.9133e-015 4.77083e-015
lhumerus 2.81544 9.98786 -1.23272
lradius 21.385
lwrist 12.144
lhand -9.56701 -4.69135
lfingers 7.12502
lthumb 16.4006 24.6353
rfemur 6.8996 15.5244 13.9966
rtibia -2.46284
rfoot -26.2957 -29.0006
rtoes 3.96452
lfemur 6.3739 -9.97504 -4.35598
ltibia -3.12667
lfoot -29.1077 5.60113
ltoes 41.5213
226
root 8.4839 17.9599 -27.9187 32.0501 -86.7499 -26.1455
lowerback -6.89957 1.4555 1.80288
upperback -4.70238 1.71129 -0.428768
thorax -0.916138 0.756331 -1.34807
lowerneck -1.73036 3.24701 0.533019
upperneck 3.27671 4.21015 2.80287
head 1.24662 2.14803 0.841935
rclavicle 2.5842e-015 -3.97569e-015
rhumerus -6.55972 -26.1455 -2.84885
rradius 21.0502
rwrist 18.1452
rhand -5.73867 -45.8112
rfingers 7.12502
rthumb 20.0836 -74.7932
lclavicle 2.5842e-015 -3.97569e-015
lhumerus 2.80816 10.0407 -1.20131
lradius 21.4119
lwrist 12.0327
lhand -9.39478 -4.62703
lfingers 7.12502
lthumb 16.5664 24.6858
rfemur 6.96694 15.7777 13.9421
rtibia -2.52462
rfoot -26.4754 -29.2964
rtoes 4.06189
lfemur 5.82727 -6.85772 -3.75
ltibia -2.36594
lfoot -25.9528 5.42058
ltoes 38.4012
227
root 8.48695 17.961 -27.9177 32.6703 -86.7808 -26.7709
lowerback -6.86619 1.52761 1.88795
upperback -4.71255 1.80343 -0.478174
thorax -0.937803 0.799633 -1.44181
lowerneck -1.60936 3.2038 0.589444
upperneck 3.18586 4.15298 2.84243
head 1.19819 2.11873 0.839791
rclavicle -3.94588e-014 7.95139e-016
rhumerus -6.7858 -26.2006 -2.79609
rradius 21.049
rwrist 18.2179
rhand -5.78832 -45.7902
rfingers 7.12502
rthumb 20.0358 -74.7772
lclavicle -3.94588e-014 7.95139e-016
lhumerus 2.955 9.7601 -1.21099
lradius 21.4826
lwrist 12.1981
lhand -9.35742 -4.52804
lfingers 7.12502
lthumb 16.6024 24.7818
rfemur 6.96564 15.92 13.9879
rtibia -2.51586
rfoot -26.6483 -29.2858
rtoes 4.32554
lfemur 6.36205 -10.168 -4.51777
ltibia -3.12889
lfoot -29.2436 5.66199
ltoes 41.3036
228
root 8.49026 17.9622 -27.9155 33.9127 -86.7597 -28.0577
lowerback -6.7961 1.57018 2.02252
upperback -4.70723 1.85539 -0.473314
thorax -0.965271 0.82287 -1.51069
lowerneck -1.44382 3.16547 0.677949
upperneck 3.02997 4.10906 2.74643
head 1.12478 2.09372 0.788734
rclavicle -7.35503e-015 1.78906e-015
rhumerus -6.81378 -26.1877 -2.75911
rradius 20.9097
rwrist 18.1643
rhand -5.76701 -45.7615
rfingers 7.12502
rthumb 20.0563 -74.7463
lclavicle -7.35503e-015 1.78906e-015
lhumerus 3.0348 9.65457 -1.15997
lradius 21.5102
lwrist 12.2822
lhand -9.3929 -4.46706
lfingers 7.12502
lthumb 16.5682 24.8457
rfemur 6.95373 15.7674 14.0272
rtibia -2.45861
rfoot -26.6039 -29.0804
rtoes 4.26761
lfemur 5.97518 -7.58499 -3.76851
ltibia -2.50806
lfoot -26.7383 5.22946
ltoes 39.4568
229
root 8.49504 17.962 -27.9135 35.82 -86.6624 -29.9756
lowerback -6.74019 1.54343 2.21446
upperback -4.70817 1.81162 -0.393848
thorax -0.996026 0.797507 -1.54052
lowerneck -1.41937 3.19495 0.732522
upperneck 3.04644 4.15462 2.52684
head 1.13053 2.11444 0.712379
rclavicle 2.08724e-014 3.57812e-015
rhumerus -6.61001 -26.239 -2.84308
rradius 20.7898
rwrist 18.2013
rhand -5.68755 -45.7017
rfingers 7.12502
rthumb 20.1327 -74.6785
lclavicle 2.08724e-014 3.57812e-015
lhumerus 2.94109 9.64612 -1.13743
lradius 21.4678
lwrist 12.2988
lhand -9.42336 -4.54331
lfingers 7.12502
lthumb 16.5389 24.7719
rfemur 6.89777 15.616 14.1452
rtibia -2.39991
rfoot -26.5057 -28.9823
rtoes 3.95869
lfemur 6.06232 -8.32485 -3.77421
ltibia -2.66791
lfoot -27.4656 5.40698
ltoes 39.9879
230
root 8.50016 17.9604 -27.911 36.6482 -86.6363 -30.7464
lowerback -6.75253 1.53295 2.32882
upperback -4.72277 1.7908 -0.35383
thorax -1.00329 0.784453 -1.56456
lowerneck -1.38573 3.20581 0.652223
upperneck 3.01526 4.1744 2.48227
head 1.11406 2.12254 0.710948
rclavicle -1.13059e-014 -2.38542e-015
rhumerus -6.58143 -26.2582 -2.91426
rradius 20.9418
rwrist 18.2503
rhand -5.59056 -45.6824
rfingers 7.12502
rthumb 20.2259 -74.6494
lclavicle -1.13059e-014 -2.38542e-015
lhumerus 2.84984 9.42708 -1.17011
lradius 21.4382
lwrist 12.4936
lhand -9.54349 -4.7615
lfingers 7.12502
lthumb 16.4232 24.5633
rfemur 6.78964 15.5951 14.1683
rtibia -2.36635
rfoot -26.482 -28.9731
rtoes 3.82475
lfemur 5.97204 -8.29933 -3.69779
ltibia -2.64968
lfoot -27.4253 5.58576
ltoes 39.6874
231
root 8.50216 17.96 -27.9077 37.2123 -86.7318 -31.3092
lowerback -6.75521 1.58486 2.38241
upperback -4.70701 1.85738 -0.364428
thorax -0.98071 0.817091 -1.60115
lowerneck -1.43481 3.19469 0.545208
upperneck 3.08836 4.1589 2.5217
head 1.14271 2.11517 0.742775
rclavicle -8.19987e-015 3.57812e-015
rhumerus -6.69983 -26.3013 -2.92542
rradius 21.0944
rwrist 18.2496
rhand -5.568 -45.7587
rfingers 7.12502
rthumb 20.2476 -74.7234
lclavicle -8.19987e-015 3.57812e-015
lhumerus 2.89374 9.65501 -1.05446
lradius 21.4264
lwrist 12.238
lhand -9.50373 -4.8489
lfingers 7.12502
lthumb 16.4615 24.4727
rfemur 6.73131 15.5067 14.0762
rtibia -2.34603
rfoot -26.3058 -28.8594
rtoes 3.41946
lfemur 5.91639 -7.68107 -3.6009
ltibia -2.53066
lfoot -26.827 5.5451
ltoes 39.0111
232
root 8.50225 17.9614 -27.9052 38.0277 -86.8559 -32.2054
lowerback -6.71377 1.64734 2.42858
upperback -4.65414 1.94109 -0.3755
thorax -0.9434 0.85983 -1.63357
lowerneck -1.48961 3.21574 0.525723
upperneck 3.15809 4.18662 2.48442
head 1.17407 2.12932 0.737176
rclavicle -2.11209e-014 -1.98785e-016
rhumerus -6.69357 -26.4756 -2.92895
rradius 20.9646
rwrist 18.3057
rhand -5.56274 -45.803
rfingers 7.12502
rthumb 20.2526 -74.7671
lclavicle -2.11209e-014 -1.98785e-016
lhumerus 2.99029 10.1385 -0.872883
lradius 21.3911
lwrist 11.7582
lhand -9.36822 -4.7787
lfingers 7.12502
lthumb 16.592 24.532
rfemur 6.75299 15.39 13.9797
rtibia -2.32706
rfoot -26.0685 -28.6974
rtoes 2.94645
lfemur 6.10949 -7.91048 -3.73467
ltibia -2.64049
lfoot -27.0975 5.54139
ltoes 39.2279
